<mxfile host="app.diagrams.net" modified="2022-10-27T17:04:11.525Z" agent="5.0 (X11)" etag="9KDSgmSJ9GZCf_fch5xh" version="20.5.1" type="github">
  <diagram id="rwEur3E-UaF2kAqq4kTS" name="Page-1">
    <mxGraphModel dx="1182" dy="762" grid="1" gridSize="10" guides="1" tooltips="1" connect="1" arrows="1" fold="1" page="1" pageScale="1" pageWidth="850" pageHeight="1100" math="0" shadow="0">
      <root>
        <mxCell id="0" />
        <mxCell id="1" parent="0" />
        <mxCell id="AlUz41l7lxKcF3m5OTPx-3" style="edgeStyle=orthogonalEdgeStyle;rounded=0;orthogonalLoop=1;jettySize=auto;html=1;exitX=0.5;exitY=1;exitDx=0;exitDy=0;" edge="1" parent="1" source="AlUz41l7lxKcF3m5OTPx-1" target="AlUz41l7lxKcF3m5OTPx-2">
          <mxGeometry relative="1" as="geometry" />
        </mxCell>
        <mxCell id="AlUz41l7lxKcF3m5OTPx-1" value="Material App " style="rounded=1;whiteSpace=wrap;html=1;" vertex="1" parent="1">
          <mxGeometry x="365" y="60" width="120" height="60" as="geometry" />
        </mxCell>
        <mxCell id="AlUz41l7lxKcF3m5OTPx-5" style="edgeStyle=orthogonalEdgeStyle;rounded=0;orthogonalLoop=1;jettySize=auto;html=1;exitX=0;exitY=0.5;exitDx=0;exitDy=0;" edge="1" parent="1" source="AlUz41l7lxKcF3m5OTPx-2" target="AlUz41l7lxKcF3m5OTPx-7">
          <mxGeometry relative="1" as="geometry">
            <mxPoint x="290" y="230" as="targetPoint" />
          </mxGeometry>
        </mxCell>
        <mxCell id="AlUz41l7lxKcF3m5OTPx-9" style="edgeStyle=orthogonalEdgeStyle;rounded=0;orthogonalLoop=1;jettySize=auto;html=1;exitX=0.5;exitY=1;exitDx=0;exitDy=0;" edge="1" parent="1" source="AlUz41l7lxKcF3m5OTPx-2" target="AlUz41l7lxKcF3m5OTPx-8">
          <mxGeometry relative="1" as="geometry" />
        </mxCell>
        <mxCell id="AlUz41l7lxKcF3m5OTPx-11" style="edgeStyle=orthogonalEdgeStyle;rounded=0;orthogonalLoop=1;jettySize=auto;html=1;exitX=1;exitY=0.5;exitDx=0;exitDy=0;" edge="1" parent="1" source="AlUz41l7lxKcF3m5OTPx-2" target="AlUz41l7lxKcF3m5OTPx-10">
          <mxGeometry relative="1" as="geometry" />
        </mxCell>
        <mxCell id="AlUz41l7lxKcF3m5OTPx-2" value="Scaffold" style="rounded=1;whiteSpace=wrap;html=1;" vertex="1" parent="1">
          <mxGeometry x="365" y="200" width="120" height="60" as="geometry" />
        </mxCell>
        <mxCell id="AlUz41l7lxKcF3m5OTPx-7" value="Color" style="rounded=1;whiteSpace=wrap;html=1;" vertex="1" parent="1">
          <mxGeometry x="80" y="310" width="120" height="60" as="geometry" />
        </mxCell>
        <mxCell id="AlUz41l7lxKcF3m5OTPx-13" style="edgeStyle=orthogonalEdgeStyle;rounded=0;orthogonalLoop=1;jettySize=auto;html=1;exitX=0;exitY=0.5;exitDx=0;exitDy=0;entryX=0.5;entryY=0;entryDx=0;entryDy=0;" edge="1" parent="1" source="AlUz41l7lxKcF3m5OTPx-8" target="AlUz41l7lxKcF3m5OTPx-12">
          <mxGeometry relative="1" as="geometry" />
        </mxCell>
        <mxCell id="AlUz41l7lxKcF3m5OTPx-15" style="edgeStyle=orthogonalEdgeStyle;rounded=0;orthogonalLoop=1;jettySize=auto;html=1;exitX=0.5;exitY=1;exitDx=0;exitDy=0;" edge="1" parent="1" source="AlUz41l7lxKcF3m5OTPx-8" target="AlUz41l7lxKcF3m5OTPx-14">
          <mxGeometry relative="1" as="geometry" />
        </mxCell>
        <mxCell id="AlUz41l7lxKcF3m5OTPx-8" value="AppBar" style="rounded=1;whiteSpace=wrap;html=1;" vertex="1" parent="1">
          <mxGeometry x="365" y="320" width="120" height="60" as="geometry" />
        </mxCell>
        <mxCell id="AlUz41l7lxKcF3m5OTPx-17" style="edgeStyle=orthogonalEdgeStyle;rounded=0;orthogonalLoop=1;jettySize=auto;html=1;exitX=0.5;exitY=1;exitDx=0;exitDy=0;" edge="1" parent="1" source="AlUz41l7lxKcF3m5OTPx-10" target="AlUz41l7lxKcF3m5OTPx-16">
          <mxGeometry relative="1" as="geometry" />
        </mxCell>
        <mxCell id="AlUz41l7lxKcF3m5OTPx-10" value="Center" style="rounded=1;whiteSpace=wrap;html=1;" vertex="1" parent="1">
          <mxGeometry x="610" y="310" width="120" height="60" as="geometry" />
        </mxCell>
        <mxCell id="AlUz41l7lxKcF3m5OTPx-12" value="Color" style="rounded=1;whiteSpace=wrap;html=1;" vertex="1" parent="1">
          <mxGeometry x="230" y="490" width="120" height="60" as="geometry" />
        </mxCell>
        <mxCell id="AlUz41l7lxKcF3m5OTPx-14" value="Test" style="rounded=1;whiteSpace=wrap;html=1;" vertex="1" parent="1">
          <mxGeometry x="365" y="490" width="120" height="60" as="geometry" />
        </mxCell>
        <mxCell id="AlUz41l7lxKcF3m5OTPx-19" style="edgeStyle=orthogonalEdgeStyle;rounded=0;orthogonalLoop=1;jettySize=auto;html=1;exitX=0.5;exitY=1;exitDx=0;exitDy=0;" edge="1" parent="1" source="AlUz41l7lxKcF3m5OTPx-16" target="AlUz41l7lxKcF3m5OTPx-18">
          <mxGeometry relative="1" as="geometry" />
        </mxCell>
        <mxCell id="AlUz41l7lxKcF3m5OTPx-16" value="Image" style="rounded=1;whiteSpace=wrap;html=1;" vertex="1" parent="1">
          <mxGeometry x="610" y="490" width="120" height="60" as="geometry" />
        </mxCell>
        <mxCell id="AlUz41l7lxKcF3m5OTPx-18" value="NetworkImage" style="rounded=1;whiteSpace=wrap;html=1;" vertex="1" parent="1">
          <mxGeometry x="610" y="620" width="120" height="60" as="geometry" />
        </mxCell>
      </root>
    </mxGraphModel>
  </diagram>
</mxfile>
